#N canvas 536 274 418 642 12;
#X obj 17 75 cyclone/zl median;
#X msg 145 75 2;
#X obj 105 129 expr pow(10. \, $f1);
#X floatatom 105 159 5 0 0 0 - - -;
#X obj 17 181 * 1;
#X obj 17 214 t f f i;
#X obj 40 277 - 0;
#X obj 63 248 int;
#X obj 17 300 - 0;
#X obj 17 328 / 1, f 5;
#X obj 17 48 cyclone/zl group 10;
#X obj 17 105 cyclone/bondo;
#X obj 157 48 loadbang;
#X obj 17 19 inlet;
#X obj 17 357 outlet;
#X connect 0 0 11 0;
#X connect 1 0 11 1;
#X connect 2 0 3 0;
#X connect 3 0 4 1;
#X connect 3 0 9 1;
#X connect 4 0 5 0;
#X connect 5 0 8 0;
#X connect 5 1 6 0;
#X connect 5 2 7 0;
#X connect 6 0 8 1;
#X connect 7 0 6 1;
#X connect 8 0 9 0;
#X connect 9 0 14 0;
#X connect 10 0 0 0;
#X connect 11 0 4 0;
#X connect 11 1 2 0;
#X connect 12 0 1 0;
#X connect 13 0 10 0;
