#N canvas 439 523 831 603 12;
#X obj 94 41 loadbang;
#X msg 94 78 listen 5000;
#X obj 94 115 netreceive -u -b 5000;
#X obj 94 146 oscparse;
#X obj 25 194 print;
#X obj 623 317 *~;
#X floatatom 623 232 0 0 0 0 - - -;
#X floatatom 553 277 0 0 0 0 - - -;
#X obj 553 347 +~;
#X floatatom 641 287 0 0 0 0 - - -;
#X text 528 234 carrier;
#X text 527 252 frequency;
#X text 608 208 frequency;
#X text 609 191 modulation;
#X obj 553 393 osc~;
#X text 466 374 "carrier";
#X text 461 309 add modulator;
#X text 460 327 to carrier;
#X text 680 299 index;
#X text 682 280 modulation;
#X obj 623 257 osc~;
#X obj 495 442 output~;
#X text 438 392 oscillator =>;
#X text 458 346 frequency =>;
#X obj 93 197 list trim;
#X obj 93 228 route filter1 filter2 filter3;
#X floatatom 93 258 5 0 0 0 - - -;
#X floatatom 159 258 5 0 0 0 - - -;
#X floatatom 226 260 5 0 0 0 - - -;
#X obj 93 290 cyclone/scale 0 1 0 1000;
#X obj 160 333 cyclone/scale 0 1 0 100;
#X obj 228 371 cyclone/scale 0 1 0 200;
#X connect 0 0 1 0;
#X connect 1 0 2 0;
#X connect 2 0 3 0;
#X connect 3 0 4 0;
#X connect 3 0 24 0;
#X connect 5 0 8 1;
#X connect 6 0 20 0;
#X connect 7 0 8 0;
#X connect 8 0 14 0;
#X connect 9 0 5 1;
#X connect 14 0 21 0;
#X connect 14 0 21 1;
#X connect 20 0 5 0;
#X connect 24 0 25 0;
#X connect 25 0 26 0;
#X connect 25 1 27 0;
#X connect 25 2 28 0;
#X connect 26 0 29 0;
#X connect 27 0 30 0;
#X connect 28 0 31 0;
#X connect 29 0 7 0;
#X connect 30 0 6 0;
#X connect 31 0 9 0;
