#N canvas 1006 289 1528 612 10;
#X obj 112 56 bng 25 250 50 0 empty empty empty 17 7 0 10 -4034 -1
-1;
#X obj 21 64 tgl 24 0 empty empty empty 17 7 0 10 -262144 -1 -1 1 1
;
#X msg 104 98 setup_wiringPi;
#X obj 21 179 unpack f f f f f f f f;
#X obj 21 98 metro 5;
#X obj 21 132 wiringPi_mcp3008 0 8;
#X obj 21 212 cyclone/scale 0 1024 0 1;
#X obj 39 239 cyclone/scale 0 1024 0 1;
#X obj 21 341 nbx 5 24 -1e+37 1e+37 0 0 empty empty empty 0 -8 0 16
-4034 -1 -1 0.27 256;
#X obj 113 341 nbx 5 24 -1e+37 1e+37 0 0 empty empty empty 0 -8 0 16
-4034 -1 -1 0.19 256;
#X obj 55 266 cyclone/scale 0 1024 0 1;
#X obj 205 341 nbx 5 24 -1e+37 1e+37 0 0 empty empty empty 0 -8 0 16
-4034 -1 -1 0.29 256;
#X obj 295 191 cyclone/scale 0 1024 0 1;
#X obj 295 341 nbx 5 24 -1e+37 1e+37 0 0 empty empty empty 0 -8 0 16
-4034 -1 -1 0.69 256;
#X obj 384 212 cyclone/scale 0 1024 0 1;
#X obj 385 341 nbx 5 24 -1e+37 1e+37 0 0 empty empty empty 0 -8 0 16
-4034 -1 -1 0.38 256;
#X text 40 366 POT1;
#X text 130 366 POT2;
#X text 222 366 POT3;
#X text 312 366 POT4;
#X obj 481 269 cyclone/scale 0 1024 0 1;
#X obj 571 239 cyclone/scale 0 1024 0 1;
#X obj 661 266 cyclone/scale 0 1024 0 1;
#X obj 481 341 nbx 5 24 -1e+37 1e+37 0 0 empty empty empty 0 -8 0 16
-4034 -1 -1 0.46 256;
#X obj 571 341 nbx 5 24 -1e+37 1e+37 0 0 empty empty empty 0 -8 0 16
-4034 -1 -1 0.51 256;
#X obj 661 341 nbx 5 24 -1e+37 1e+37 0 0 empty empty empty 0 -8 0 16
-4034 -1 -1 0.23 256;
#X text 498 366 POT6;
#X text 588 366 POT7;
#X text 686 366 POT8;
#X obj 21 16 loadbang;
#X obj 21 41 del 50;
#X obj 293 35 netreceive 3000;
#X floatatom 250 128 5 0 0 0 - - -;
#X floatatom 339 128 5 0 0 0 - - -;
#X floatatom 429 128 5 0 0 0 - - -;
#X floatatom 500 128 5 0 0 0 - - -;
#X obj 429 105 route but3;
#X obj 500 105 route but4;
#X floatatom 571 128 5 0 0 0 - - -;
#X floatatom 642 128 5 0 0 0 - - -;
#X obj 571 105 route but5;
#X obj 642 105 route but6;
#X floatatom 712 128 5 0 0 0 - - -;
#X floatatom 783 128 5 0 0 0 - - -;
#X obj 712 105 route but7;
#X obj 783 105 route but8;
#X obj 250 105 route but1 \$1;
#X obj 339 105 route but2 \$1;
#X obj 211 105 print;
#X obj 339 151 s button2;
#X obj 250 151 s button1;
#X obj 429 151 s button3;
#X obj 500 151 s button4;
#X obj 571 151 s button 5;
#X obj 642 151 s button6;
#X floatatom 855 128 5 0 0 0 - - -;
#X floatatom 926 128 5 0 0 0 - - -;
#X obj 926 151 s button10;
#X obj 926 105 route but10;
#X obj 855 105 route but9;
#X obj 855 151 s button9;
#X obj 783 151 s button8;
#X obj 712 151 s button7;
#X text 410 366 POT5;
#X obj 96 153 wiringPi_mcp3008 1 8;
#X obj 540 182 unpack f f f f f f f f;
#X obj 751 212 cyclone/scale 0 1024 0 1;
#X obj 843 245 cyclone/scale 0 1024 0 1;
#X obj 751 341 nbx 5 24 -1e+37 1e+37 0 0 empty empty empty 0 -8 0 16
-4034 -1 -1 0.57 256;
#X obj 843 341 nbx 5 24 -1e+37 1e+37 0 0 empty empty empty 0 -8 0 16
-4034 -1 -1 0.64 256;
#X text 770 366 POT1;
#X text 860 366 POT2;
#X obj 21 313 smooth;
#X obj 113 313 smooth;
#X obj 205 313 smooth;
#X obj 295 313 smooth;
#X obj 384 313 smooth;
#X obj 481 313 smooth;
#X obj 571 313 smooth;
#X obj 661 313 smooth;
#X obj 751 307 smooth;
#X obj 843 311 smooth;
#X obj 21 382 s k1;
#X obj 113 382 s k2;
#X obj 843 382 s k10;
#X obj 205 382 s k3;
#X obj 295 382 s k4;
#X obj 385 382 s k5;
#X obj 483 382 s k6;
#X obj 571 382 s k7;
#X obj 661 382 s k8;
#X obj 751 382 s k9;
#X floatatom 1023 151 5 0 0 0 - - -;
#X obj 1023 103 route fly;
#X obj 1006 245 cyclone/scale 0 1024 0 1;
#X obj 1006 341 nbx 5 24 -1e+37 1e+37 0 0 empty empty empty 0 -8 0
16 -4034 -1 -1 0.25 256;
#X obj 1006 311 smooth;
#X text 1023 366 Light;
#X obj 1167 340 nbx 5 24 -1e+37 1e+37 0 0 empty empty empty 0 -8 0
16 -4034 -1 -1 33.875 256;
#X text 1184 365 FLY;
#X obj 1167 244 cyclone/scale 60 300 0 1;
#X obj 1167 381 s fly;
#X obj 1006 382 s light;
#X connect 0 0 5 0;
#X connect 0 0 64 0;
#X connect 1 0 4 0;
#X connect 2 0 5 0;
#X connect 2 0 64 0;
#X connect 3 0 6 0;
#X connect 3 1 7 0;
#X connect 3 2 10 0;
#X connect 3 3 12 0;
#X connect 3 4 14 0;
#X connect 3 5 20 0;
#X connect 3 6 21 0;
#X connect 3 7 22 0;
#X connect 4 0 5 0;
#X connect 4 0 64 0;
#X connect 5 0 3 0;
#X connect 6 0 72 0;
#X connect 7 0 73 0;
#X connect 8 0 82 0;
#X connect 9 0 83 0;
#X connect 10 0 74 0;
#X connect 11 0 85 0;
#X connect 12 0 75 0;
#X connect 13 0 86 0;
#X connect 14 0 76 0;
#X connect 15 0 87 0;
#X connect 20 0 77 0;
#X connect 21 0 78 0;
#X connect 22 0 79 0;
#X connect 23 0 88 0;
#X connect 24 0 89 0;
#X connect 25 0 90 0;
#X connect 29 0 2 0;
#X connect 29 0 30 0;
#X connect 30 0 1 0;
#X connect 31 0 36 0;
#X connect 31 0 37 0;
#X connect 31 0 40 0;
#X connect 31 0 41 0;
#X connect 31 0 44 0;
#X connect 31 0 45 0;
#X connect 31 0 46 0;
#X connect 31 0 47 0;
#X connect 31 0 48 0;
#X connect 31 0 59 0;
#X connect 31 0 58 0;
#X connect 31 0 93 0;
#X connect 32 0 50 0;
#X connect 33 0 49 0;
#X connect 34 0 51 0;
#X connect 35 0 52 0;
#X connect 36 0 34 0;
#X connect 37 0 35 0;
#X connect 38 0 53 0;
#X connect 39 0 54 0;
#X connect 40 0 38 0;
#X connect 41 0 39 0;
#X connect 42 0 62 0;
#X connect 43 0 61 0;
#X connect 44 0 42 0;
#X connect 45 0 43 0;
#X connect 46 0 32 0;
#X connect 47 0 33 0;
#X connect 55 0 60 0;
#X connect 56 0 57 0;
#X connect 58 0 56 0;
#X connect 59 0 55 0;
#X connect 64 0 65 0;
#X connect 65 0 66 0;
#X connect 65 1 67 0;
#X connect 65 7 94 0;
#X connect 66 0 80 0;
#X connect 67 0 81 0;
#X connect 68 0 91 0;
#X connect 69 0 84 0;
#X connect 72 0 8 0;
#X connect 73 0 9 0;
#X connect 74 0 11 0;
#X connect 75 0 13 0;
#X connect 76 0 15 0;
#X connect 77 0 23 0;
#X connect 78 0 24 0;
#X connect 79 0 25 0;
#X connect 80 0 68 0;
#X connect 81 0 69 0;
#X connect 92 0 100 0;
#X connect 93 0 92 0;
#X connect 94 0 96 0;
#X connect 95 0 102 0;
#X connect 96 0 95 0;
#X connect 98 0 101 0;
#X connect 100 0 98 0;
