#N canvas 76 51 708 392 10;
#N canvas 159 401 809 597 delayphasor 0;
#X obj 386 424 *~ 0.8;
#X obj 387 379 /~ 44.1;
#X obj 387 356 +~ 100;
#X obj 387 334 *~ 50;
#X obj 385 262 -~ 0.5;
#X obj 386 288 abs~;
#X obj 387 313 *~ 2;
#X obj 117 395 /~ 44.1;
#X obj 117 372 +~ 100;
#X obj 117 350 *~ 50;
#X obj 115 278 -~ 0.5;
#X obj 116 304 abs~;
#X obj 117 329 *~ 2;
#X floatatom 191 209 5 0 0 0 - - -;
#X obj 117 438 *~ 0.8;
#X obj 27 42 inlet~;
#X obj 191 168 loadbang;
#X msg 191 187 0.5;
#X floatatom 504 165 5 0 0 0 - - -;
#X floatatom 546 164 5 0 0 0 - - -;
#X obj 504 141 inlet;
#X obj 546 141 inlet;
#X obj 348 48 inlet~;
#X obj 116 258 phasor~ 0.033;
#X obj 386 242 phasor~ 0.033;
#X obj 116 465 outlet~;
#X obj 386 450 outlet~;
#X obj 246 168 inlet phasor;
#X obj 115 417 vd~ \$0-dpdelay11;
#X obj 386 401 vd~ \$0-dpdelay22;
#X obj 348 73 delwrite~ \$0-dpdelay22 1000;
#X obj 27 66 delwrite~ \$0-dpdelay11 1000;
#X msg 116 236 0.033;
#X obj 116 215 loadbang;
#X msg 386 219 0.033;
#X obj 386 197 loadbang;
#X obj 585 143 inlet phaseL;
#X obj 668 144 inlet phaseR;
#X connect 0 0 26 0;
#X connect 0 0 30 0;
#X connect 1 0 29 0;
#X connect 2 0 1 0;
#X connect 3 0 2 0;
#X connect 4 0 5 0;
#X connect 5 0 6 0;
#X connect 6 0 3 0;
#X connect 7 0 28 0;
#X connect 8 0 7 0;
#X connect 9 0 8 0;
#X connect 10 0 11 0;
#X connect 11 0 12 0;
#X connect 12 0 9 0;
#X connect 13 0 23 1;
#X connect 14 0 25 0;
#X connect 14 0 31 0;
#X connect 15 0 31 0;
#X connect 16 0 17 0;
#X connect 17 0 13 0;
#X connect 18 0 9 1;
#X connect 18 0 3 1;
#X connect 19 0 8 1;
#X connect 19 0 2 1;
#X connect 20 0 18 0;
#X connect 21 0 19 0;
#X connect 22 0 30 0;
#X connect 23 0 10 0;
#X connect 24 0 4 0;
#X connect 27 0 13 0;
#X connect 28 0 14 0;
#X connect 29 0 0 0;
#X connect 32 0 23 0;
#X connect 33 0 32 0;
#X connect 34 0 24 0;
#X connect 35 0 34 0;
#X connect 36 0 23 0;
#X connect 37 0 24 0;
#X restore 26 141 pd delayphasor;
#X obj 134 213 outlet~;
#X obj 227 213 outlet~;
#X obj 23 77 inlet~;
#X obj 65 77 inlet~;
#X obj 386 179 inlet params;
#X obj 386 225 print PARAM_NOTFOUND;
#X obj 134 193 tof/crossfade~ 2;
#X obj 227 173 line~;
#X msg 227 154 \$1 5;
#X obj 386 201 tof/param route;
#X obj 387 258 b;
#X obj 388 287 tof/param gui;
#X obj 227 135 tof/param /wet;
#X obj 114 90 tof/param /delay1;
#X obj 226 90 tof/param /delay2;
#X obj 335 90 tof/param /phasor;
#X obj 445 90 tof/param /phaseL;
#X obj 556 90 tof/param /phaseR;
#X obj 114 50 r kk2;
#X obj 227 116 r kk1;
#N canvas 247 104 275 273 delay_log 0;
#X obj 50 185 exp;
#X obj 50 137 *;
#X obj 50 160 +;
#X obj 128 117 log;
#X obj 198 120 log;
#X obj 153 153 t b f;
#X obj 153 175 -;
#X obj 50 213 outlet;
#X obj 50 59 inlet;
#X obj 128 73 r lb;
#X msg 198 98 2500;
#X msg 128 96 25;
#X connect 0 0 7 0;
#X connect 1 0 2 0;
#X connect 2 0 0 0;
#X connect 3 0 2 1;
#X connect 3 0 5 0;
#X connect 4 0 6 0;
#X connect 5 0 6 0;
#X connect 5 1 6 1;
#X connect 6 0 1 1;
#X connect 8 0 1 0;
#X connect 9 0 11 0;
#X connect 9 0 10 0;
#X connect 10 0 4 0;
#X connect 11 0 3 0;
#X restore 114 70 pd delay_log;
#X obj 226 50 r kk3;
#N canvas 247 104 275 273 delay_log 0;
#X obj 50 185 exp;
#X obj 50 137 *;
#X obj 50 160 +;
#X obj 128 117 log;
#X obj 198 120 log;
#X obj 153 153 t b f;
#X obj 153 175 -;
#X obj 50 213 outlet;
#X obj 50 59 inlet;
#X obj 128 73 r lb;
#X msg 198 98 2500;
#X msg 128 96 25;
#X connect 0 0 7 0;
#X connect 1 0 2 0;
#X connect 2 0 0 0;
#X connect 3 0 2 1;
#X connect 3 0 5 0;
#X connect 4 0 6 0;
#X connect 5 0 6 0;
#X connect 5 1 6 1;
#X connect 6 0 1 1;
#X connect 8 0 1 0;
#X connect 9 0 11 0;
#X connect 9 0 10 0;
#X connect 10 0 4 0;
#X connect 11 0 3 0;
#X restore 226 70 pd delay_log;
#N canvas 247 104 275 273 phasor_log 0;
#X obj 50 185 exp;
#X obj 50 137 *;
#X obj 50 160 +;
#X obj 128 117 log;
#X obj 198 120 log;
#X obj 153 153 t b f;
#X obj 153 175 -;
#X obj 50 213 outlet;
#X obj 50 59 inlet;
#X obj 128 73 r lb;
#X msg 128 96 0.01;
#X msg 198 98 10;
#X connect 0 0 7 0;
#X connect 1 0 2 0;
#X connect 2 0 0 0;
#X connect 3 0 2 1;
#X connect 3 0 5 0;
#X connect 4 0 6 0;
#X connect 5 0 6 0;
#X connect 5 1 6 1;
#X connect 6 0 1 1;
#X connect 8 0 1 0;
#X connect 9 0 10 0;
#X connect 9 0 11 0;
#X connect 10 0 3 0;
#X connect 11 0 4 0;
#X restore 335 70 pd phasor_log;
#X obj 335 50 r kk4;
#X obj 445 50 r kk5;
#X obj 556 50 r kk6;
#N canvas 247 104 275 273 phasor_log 0;
#X obj 50 185 exp;
#X obj 50 137 *;
#X obj 50 160 +;
#X obj 128 117 log;
#X obj 198 120 log;
#X obj 153 153 t b f;
#X obj 153 175 -;
#X obj 50 213 outlet;
#X obj 50 59 inlet;
#X obj 128 73 r lb;
#X msg 128 96 0.01;
#X msg 198 98 10;
#X connect 0 0 7 0;
#X connect 1 0 2 0;
#X connect 2 0 0 0;
#X connect 3 0 2 1;
#X connect 3 0 5 0;
#X connect 4 0 6 0;
#X connect 5 0 6 0;
#X connect 5 1 6 1;
#X connect 6 0 1 1;
#X connect 8 0 1 0;
#X connect 9 0 10 0;
#X connect 9 0 11 0;
#X connect 10 0 3 0;
#X connect 11 0 4 0;
#X restore 445 70 pd phasor_log;
#N canvas 247 104 275 273 phasor_log 0;
#X obj 50 185 exp;
#X obj 50 137 *;
#X obj 50 160 +;
#X obj 128 117 log;
#X obj 198 120 log;
#X obj 153 153 t b f;
#X obj 153 175 -;
#X obj 50 213 outlet;
#X obj 50 59 inlet;
#X obj 128 73 r lb;
#X msg 128 96 0.01;
#X msg 198 98 10;
#X connect 0 0 7 0;
#X connect 1 0 2 0;
#X connect 2 0 0 0;
#X connect 3 0 2 1;
#X connect 3 0 5 0;
#X connect 4 0 6 0;
#X connect 5 0 6 0;
#X connect 5 1 6 1;
#X connect 6 0 1 1;
#X connect 8 0 1 0;
#X connect 9 0 10 0;
#X connect 9 0 11 0;
#X connect 10 0 3 0;
#X connect 11 0 4 0;
#X restore 556 70 pd phasor_log;
#X connect 0 0 7 2;
#X connect 0 1 7 3;
#X connect 3 0 0 0;
#X connect 3 0 7 0;
#X connect 4 0 0 2;
#X connect 4 0 7 1;
#X connect 5 0 10 0;
#X connect 7 0 1 0;
#X connect 7 1 2 0;
#X connect 8 0 7 4;
#X connect 9 0 8 0;
#X connect 10 0 6 0;
#X connect 11 0 12 0;
#X connect 13 0 9 0;
#X connect 14 0 0 3;
#X connect 15 0 0 4;
#X connect 16 0 0 1;
#X connect 17 0 0 5;
#X connect 18 0 0 6;
#X connect 19 0 21 0;
#X connect 20 0 13 0;
#X connect 21 0 14 0;
#X connect 22 0 23 0;
#X connect 23 0 15 0;
#X connect 24 0 16 0;
#X connect 25 0 24 0;
#X connect 26 0 28 0;
#X connect 27 0 29 0;
#X connect 28 0 17 0;
#X connect 29 0 18 0;
