#N canvas 316 63 1421 895 16;
#X obj 105 71 bng 25 250 50 0 empty empty empty 17 7 0 10 -4034 -1
-1;
#X obj 25 38 tgl 24 0 empty empty empty 17 7 0 10 -262144 -1 -1 1 1
;
#X msg 138 71 setup_wiringPi;
#X obj 25 149 unpack f f f f f f f f;
#X obj 25 71 metro 5;
#X obj 25 116 wiringPi_mcp3008 0 8;
#X obj 25 194 cyclone/scale 0 1024 0 1;
#X obj 58 234 cyclone/scale 0 1024 0 1;
#X obj 26 439 nbx 5 24 -1e+37 1e+37 0 0 empty empty empty 0 -8 0 16
-4034 -1 -1 0.361328 256;
#X obj 116 440 nbx 5 24 -1e+37 1e+37 0 0 empty empty empty 0 -8 0 16
-4034 -1 -1 0.504883 256;
#X obj 87 275 cyclone/scale 0 1024 0 1;
#X obj 208 440 nbx 5 24 -1e+37 1e+37 0 0 empty empty empty 0 -8 0 16
-4034 -1 -1 0.638672 256;
#X obj 297 193 cyclone/scale 0 1024 0 1;
#X obj 298 439 nbx 5 24 -1e+37 1e+37 0 0 empty empty empty 0 -8 0 16
-4034 -1 -1 0.00683594 256;
#X obj 332 227 cyclone/scale 0 1024 0 1;
#X obj 399 369 nbx 5 24 -1e+37 1e+37 0 0 empty empty empty 0 -8 0 16
-4034 -1 -1 0.361328 256;
#X text 43 465 POT1;
#X text 133 464 POT2;
#X text 225 464 POT3;
#X text 315 464 POT4;
#X text 413 466 LS;
#X obj 26 505 s k1;
#X obj 116 505 s k2;
#X obj 208 505 s k3;
#X obj 298 505 s k4;
#X obj 388 505 s ls;
#X msg 361 317 knob1 \$1;
#X msg 464 317 knob2 \$1;
#X msg 563 317 knob3 \$1;
#X msg 660 317 knob4 \$1;
#X obj 361 364 s control;
#X msg 855 317 knob6 \$1;
#X msg 952 317 knob7 \$1;
#X msg 1049 317 knob8 \$1;
#X obj 360 270 cyclone/scale 0 1024 0 1;
#X obj 561 193 cyclone/scale 0 1024 0 1;
#X obj 596 227 cyclone/scale 0 1024 0 1;
#X obj 484 443 nbx 5 24 -1e+37 1e+37 0 0 empty empty empty 0 -8 0 16
-4034 -1 -1 0.43457 256;
#X obj 574 442 nbx 5 24 -1e+37 1e+37 0 0 empty empty empty 0 -8 0 16
-4034 -1 -1 0.352539 256;
#X obj 664 443 nbx 5 24 -1e+37 1e+37 0 0 empty empty empty 0 -8 0 16
-4034 -1 -1 0.282227 256;
#X msg 757 317 ls \$1;
#X obj 484 508 s k6;
#X obj 574 508 s k7;
#X obj 664 506 s k8;
#X text 501 467 POT6;
#X text 591 468 POT7;
#X text 689 469 POT8;
#X obj 885 404 cyclone/zl median;
#X msg 1012 440 2;
#X obj 1012 505 expr pow(10. \, $f1);
#X floatatom 1012 535 5 0 0 0 - - -;
#X obj 885 567 * 1;
#X obj 885 600 t f f i;
#X obj 918 671 - 0;
#X obj 952 639 int;
#X obj 885 735 - 0;
#X obj 885 767 / 1, f 5;
#X floatatom 884 798 5 0 0 0 - - -;
#X obj 885 369 cyclone/zl group 10;
#X obj 885 474 cyclone/bondo;
#X obj 1064 403 loadbang;
#X obj 1235 735;
#N canvas 0 50 450 300 smooth 0;
#X restore 504 655 pd smooth;
#X connect 0 0 5 0;
#X connect 1 0 4 0;
#X connect 2 0 5 0;
#X connect 3 0 6 0;
#X connect 3 1 7 0;
#X connect 3 2 10 0;
#X connect 3 3 12 0;
#X connect 3 4 14 0;
#X connect 3 5 34 0;
#X connect 3 6 35 0;
#X connect 3 7 36 0;
#X connect 4 0 5 0;
#X connect 5 0 3 0;
#X connect 6 0 8 0;
#X connect 6 0 26 0;
#X connect 7 0 9 0;
#X connect 7 0 27 0;
#X connect 8 0 21 0;
#X connect 8 0 58 0;
#X connect 9 0 22 0;
#X connect 10 0 11 0;
#X connect 10 0 28 0;
#X connect 11 0 23 0;
#X connect 12 0 13 0;
#X connect 12 0 29 0;
#X connect 13 0 24 0;
#X connect 14 0 15 0;
#X connect 14 0 40 0;
#X connect 15 0 25 0;
#X connect 26 0 30 0;
#X connect 27 0 30 0;
#X connect 28 0 30 0;
#X connect 29 0 30 0;
#X connect 31 0 30 0;
#X connect 32 0 30 0;
#X connect 33 0 30 0;
#X connect 34 0 31 0;
#X connect 34 0 37 0;
#X connect 35 0 32 0;
#X connect 35 0 38 0;
#X connect 36 0 33 0;
#X connect 36 0 39 0;
#X connect 37 0 41 0;
#X connect 38 0 42 0;
#X connect 39 0 43 0;
#X connect 40 0 30 0;
#X connect 47 0 59 0;
#X connect 48 0 59 1;
#X connect 49 0 50 0;
#X connect 50 0 51 1;
#X connect 50 0 56 1;
#X connect 51 0 52 0;
#X connect 52 0 55 0;
#X connect 52 1 53 0;
#X connect 52 2 54 0;
#X connect 53 0 55 1;
#X connect 54 0 53 1;
#X connect 55 0 56 0;
#X connect 56 0 57 0;
#X connect 58 0 47 0;
#X connect 59 0 51 0;
#X connect 59 1 49 0;
#X connect 60 0 48 0;
#X coords 0 0 2 2 0 0 0;
