#N canvas 501 140 1218 518 12;
#X obj 201 315 *~;
#X obj 35 28 tgl 15 0 empty empty empty 17 7 0 10 -262144 -1 -1 0 1
;
#X msg 35 56 \; pd dsp \$1;
#X obj 225 104 vsl 15 60 0 0.5 0 0 empty empty empty 0 -9 0 10 -262144
-1 -1 4181 1;
#X obj 156 145 osc~ 440;
#X obj 156 169 *~;
#X floatatom 156 121 0 0 0 0 - - -;
#X obj 27 168 mtof;
#X obj 27 192 sig~;
#X obj 333 104 vsl 15 60 0 0.5 0 0 empty empty empty 0 -9 0 10 -262144
-1 -1 3995 1;
#X obj 264 145 osc~ 440;
#X obj 264 169 *~;
#X floatatom 264 121 0 0 0 0 - - -;
#X obj 445 104 vsl 15 60 0 0.5 0 0 empty empty empty 0 -9 0 10 -262144
-1 -1 2973 1;
#X obj 376 145 osc~ 440;
#X obj 376 169 *~;
#X floatatom 376 121 0 0 0 0 - - -;
#X obj 306 299 vsl 15 120 0 0.8 0 0 empty empty empty 0 -9 0 10 -262144
-1 -1 0 1;
#X obj 329 240 env~;
#X obj 329 268 - 100;
#X obj 330 299 vu 15 120 empty empty -1 -8 0 10 -66577 -1 1 0;
#X obj 182 373 dac~ 1 2;
#X text 153 61 OSC 1;
#X text 267 61 OSC 2;
#X text 376 61 OSC 3;
#X text 288 428 Master Volume;
#X text 179 397 Audio Out;
#X obj 225 78 r f1;
#X obj 294 269 r f5;
#X obj 333 78 r f2;
#X obj 445 78 r f3;
#X obj 568 101 vsl 15 60 0 0.5 0 0 empty empty empty 0 -9 0 10 -262144
-1 -1 4646 1;
#X obj 499 142 osc~ 440;
#X obj 499 166 *~;
#X floatatom 499 118 0 0 0 0 - - -;
#X obj 569 75 r f4;
#X text 499 58 OSC 4;
#X obj 531 333 unpack f f f f;
#X obj 531 357 s osc1;
#X obj 155 97 r osc1;
#X obj 264 97 r osc2;
#X obj 500 97 r osc4;
#X obj 376 97 r osc3;
#X obj 580 357 s osc2;
#X obj 629 357 s osc3;
#X obj 678 357 s osc4;
#X msg 532 249 399.5 400 400.5 402;
#X msg 683 248 200 201 203 204;
#X obj 532 222 r t1;
#X obj 684 222 r t2;
#X obj 531 278 r t3;
#X obj 683 278 r t4;
#X msg 531 305 800 799.4 800.6 801.3;
#X msg 682 304 500.2 499.3 501 501.8;
#X obj 671 35 ctlin 77;
#X obj 671 62 cyclone/scale 0 127 0 1;
#X obj 671 92 s f1;
#X obj 841 62 cyclone/scale 0 127 0 1;
#X obj 841 35 ctlin 78;
#X obj 841 92 s f2;
#X obj 762 136 cyclone/scale 0 127 0 1;
#X obj 932 136 cyclone/scale 0 127 0 1;
#X obj 762 166 s f3;
#X obj 932 166 s f4;
#X obj 761 110 ctlin 79;
#X obj 931 110 ctlin 80;
#X connect 0 0 18 0;
#X connect 0 0 21 0;
#X connect 0 0 21 1;
#X connect 1 0 2 0;
#X connect 3 0 5 1;
#X connect 4 0 5 0;
#X connect 5 0 0 0;
#X connect 6 0 4 0;
#X connect 7 0 8 0;
#X connect 9 0 11 1;
#X connect 10 0 11 0;
#X connect 11 0 0 0;
#X connect 12 0 10 0;
#X connect 13 0 15 1;
#X connect 14 0 15 0;
#X connect 15 0 0 0;
#X connect 16 0 14 0;
#X connect 17 0 0 1;
#X connect 18 0 19 0;
#X connect 19 0 20 0;
#X connect 27 0 3 0;
#X connect 28 0 17 0;
#X connect 29 0 9 0;
#X connect 30 0 13 0;
#X connect 31 0 33 1;
#X connect 32 0 33 0;
#X connect 33 0 0 0;
#X connect 34 0 32 0;
#X connect 35 0 31 0;
#X connect 37 0 38 0;
#X connect 37 1 43 0;
#X connect 37 2 44 0;
#X connect 37 3 45 0;
#X connect 39 0 6 0;
#X connect 40 0 12 0;
#X connect 41 0 34 0;
#X connect 42 0 16 0;
#X connect 46 0 37 0;
#X connect 47 0 37 0;
#X connect 48 0 46 0;
#X connect 49 0 47 0;
#X connect 50 0 52 0;
#X connect 51 0 53 0;
#X connect 52 0 37 0;
#X connect 53 0 37 0;
#X connect 54 0 55 0;
#X connect 55 0 56 0;
#X connect 57 0 59 0;
#X connect 58 0 57 0;
#X connect 60 0 62 0;
#X connect 61 0 63 0;
#X connect 64 0 60 0;
#X connect 65 0 61 0;
