#N canvas 226 108 893 553 12;
#X msg 125 84 setup_wiringPi;
#X obj 64 126 wiringPi_mcp3008 0 8;
#X obj 64 85 metro 5;
#X obj 64 44 tgl 15 0 empty empty empty 17 7 0 10 -262144 -1 -1 1 1
;
#X obj 64 160 unpack f f f f f f f f;
#X floatatom 64 206 5 0 0 0 - - -;
#X obj 316 82 netreceive 3000;
#X obj 316 123 print;
#X obj 362 123 route but1 \$1;
#X floatatom 362 163 5 0 0 0 - - -;
#X obj 416 159 bng 36 250 50 0 empty empty empty 17 7 0 10 -262144
-1 -1;
#X obj 533 31 import cyclone;
#X obj 128 213 scale 0 1024 0 1;
#X obj 623 381 *~;
#X floatatom 623 296 0 0 0 0 - - -;
#X floatatom 553 436 0 0 0 0 - - -;
#X obj 553 461 +~;
#X floatatom 641 351 0 0 0 0 - - -;
#X text 484 464 carrier;
#X text 470 479 frequency;
#X text 608 272 frequency;
#X text 609 255 modulation;
#X obj 553 507 osc~;
#X text 680 363 index;
#X text 682 344 modulation;
#X obj 623 321 osc~;
#X msg 415 356 220;
#X msg 456 356 245;
#X msg 498 356 275;
#X msg 539 356 300;
#X obj 416 327 sel 1 2 3 4 5;
#X msg 581 356 350;
#X obj 416 206 counter 1 5;
#X obj 553 574 dac~;
#X obj 553 544 *~ 0.05;
#X msg 88 398 \; pd dsp 1;
#X msg 192 398 \; pd dsp 0;
#X text 103 435 ON;
#X text 212 435 OFF;
#X floatatom 600 508 8 0 0 0 - - -;
#X obj 600 475 dbtorms;
#X floatatom 600 443 8 0 105 0 - - -;
#X obj 128 256 nbx 4 36 -1e+37 1e+37 0 0 empty empty empty 0 -8 0 16
-262144 -1 -1 0.750977 256;
#X obj 416 241 nbx 3 36 -1e+37 1e+37 0 0 empty empty empty 0 -8 0 16
-262144 -1 -1 0 256;
#X connect 0 0 1 0;
#X connect 1 0 4 0;
#X connect 2 0 1 0;
#X connect 3 0 2 0;
#X connect 4 0 5 0;
#X connect 4 0 12 0;
#X connect 6 0 7 0;
#X connect 6 0 8 0;
#X connect 8 0 9 0;
#X connect 8 0 10 0;
#X connect 10 0 32 0;
#X connect 12 0 42 0;
#X connect 13 0 16 1;
#X connect 14 0 25 0;
#X connect 15 0 16 0;
#X connect 16 0 22 0;
#X connect 17 0 13 1;
#X connect 22 0 34 0;
#X connect 25 0 13 0;
#X connect 26 0 15 0;
#X connect 27 0 15 0;
#X connect 28 0 15 0;
#X connect 29 0 15 0;
#X connect 30 0 26 0;
#X connect 30 1 27 0;
#X connect 30 2 28 0;
#X connect 30 3 29 0;
#X connect 30 4 31 0;
#X connect 31 0 15 0;
#X connect 32 0 43 0;
#X connect 34 0 33 0;
#X connect 39 0 34 1;
#X connect 40 0 39 0;
#X connect 41 0 40 0;
#X connect 43 0 30 0;
