#N canvas 538 115 522 383 10;
#X declare -path lib/rj/;
#X declare -path lib/;
#X declare -path modules/;
#X obj 185 59 dac~;
#X obj 40 34 declare -path lib/rj/;
#X obj 185 34 catch~ L;
#X obj 251 34 catch~ R;
#N canvas 1068 119 330 266 WORKSPACE 1;
#X obj 78 114 modules/3/main;
#X obj 159 140 throw~ R;
#X obj 78 140 throw~ L;
#X obj 159 90 r control;
#X obj 78 90 r knobs;
#X restore 38 112 pd WORKSPACE;
#X obj 40 59 declare -path lib/;
#X obj 40 141 r programchange;
#X obj 40 83 declare -path modules/;
#X msg 40 165 \; pd-WORKSPACE clear \; pd-WORKSPACE obj 78 114 modules/\$1/main
\; pd-WORKSPACE obj 159 140 throw~ R \; pd-WORKSPACE obj 78 140 throw~
L \; pd-WORKSPACE obj 159 90 r control \; pd-WORKSPACE obj 78 90 r
knobs \; pd-WORKSPACE connect 0 0 2 0 \; pd-WORKSPACE connect 0 1 1
0 \; pd-WORKSPACE connect 3 0 0 1 \; pd-WORKSPACE connect 4 0 0 0 \;
loadbang bang \;;
#X obj 341 185 s programchange;
#X obj 314 34 r button2;
#X floatatom 314 59 5 0 0 0 - - -;
#X msg 314 110 \; pd dsp 0;
#X obj 314 83 sel 5;
#X msg 380 110 \; pd dsp 1;
#X floatatom 341 160 5 0 0 0 - - -;
#X obj 124 112 control_map;
#X text 344 279 Test GIT;
#X connect 2 0 0 0;
#X connect 3 0 0 1;
#X connect 6 0 8 0;
#X connect 10 0 11 0;
#X connect 11 0 13 0;
#X connect 13 0 12 0;
#X connect 13 1 14 0;
#X connect 13 1 15 0;
#X connect 15 0 9 0;
