#N canvas 802 151 538 808 12;
#N canvas 0 0 450 300 (subpatch) 0;
#X array table19 44103 float 0;
#X coords 0 1.02 44100 -1.02 200 130 1;
#X restore 300 39 graph;
#X obj 21 609 hip~ 5;
#X floatatom 22 164 0 0 0 0 - - -;
#X floatatom 145 259 0 0 100 0 - - -;
#X obj 145 288 * 441;
#X obj 120 311 *~ 0;
#X obj 120 339 +~ 1;
#X obj 21 583 *~;
#X obj 127 495 line~;
#X obj 127 447 * 441;
#X floatatom 127 424 0 0 0 0 - - -;
#X obj 127 471 pack 0 100;
#X obj 40 529 +~;
#X obj 23 70 soundfiler;
#X text 309 177 ---- 44103 samples ---;
#X obj 21 319 -~ 0.5;
#X obj 22 189 phasor~;
#X obj 21 347 *~ 0.5;
#X obj 21 376 cos~;
#X obj 40 555 tabread4~ table19;
#X text 165 427 <= read point (100ths of a second);
#X text 177 260 <= chunk size (100ths of a second);
#X text 53 165 <= frequency (Hz.);
#X msg 23 46 read Media/voice.wav table19;
#X obj 146 198 r k1;
#X obj 22 115 r k3;
#X obj 23 18 r loadbang;
#X obj 51 751 outlet~ left;
#X obj 153 753 outlet~ right;
#X floatatom 51 693 0 0 100 0 - - -;
#N canvas 159 26 722 503 output 0;
#X obj 338 160 t b;
#X obj 338 110 f;
#X obj 338 60 inlet;
#X text 344 29 mute;
#X obj 338 185 f;
#X msg 426 180 0;
#X msg 338 85 bang;
#X obj 338 135 moses 1;
#X obj 397 110 moses 1;
#X obj 83 148 dbtorms;
#X obj 397 85 r master-lvl;
#X obj 83 42 r master-lvl;
#X obj 338 210 s master-lvl;
#X obj 20 155 inlet~;
#X obj 199 41 inlet;
#X text 199 18 level;
#X obj 199 105 s master-lvl;
#X msg 96 65 set \$1;
#X obj 96 90 outlet;
#X obj 83 198 line~;
#X obj 20 207 *~;
#X obj 83 173 pack 0 50;
#X text 20 132 audio;
#X text 96 114 show level;
#X obj 426 155 t b;
#X obj 20 181 hip~ 1;
#X obj 148 274 outlet~ L;
#X obj 219 275 outlet~ R;
#X connect 0 0 4 0;
#X connect 1 0 7 0;
#X connect 2 0 6 0;
#X connect 4 0 12 0;
#X connect 5 0 12 0;
#X connect 6 0 1 0;
#X connect 7 0 0 0;
#X connect 7 1 24 0;
#X connect 8 1 4 1;
#X connect 9 0 21 0;
#X connect 10 0 1 1;
#X connect 10 0 8 0;
#X connect 11 0 9 0;
#X connect 11 0 17 0;
#X connect 13 0 25 0;
#X connect 14 0 16 0;
#X connect 17 0 18 0;
#X connect 19 0 20 1;
#X connect 20 0 26 0;
#X connect 20 0 27 0;
#X connect 21 0 19 0;
#X connect 24 0 5 0;
#X connect 25 0 20 0;
#X restore 21 721 pd output;
#X obj 128 375 r k2;
#X obj 108 18 import cyclone;
#N canvas 1086 394 450 300 vol-control 0;
#X msg 18 96 MUTE;
#X obj 139 47 r k10;
#X obj 97 76 tgl 15 0 empty empty empty 17 7 0 10 -262144 -1 -1 1 1
;
#X obj 97 100 gate;
#X obj 139 76 scale 0 1 0 95;
#X obj 268 12 r button3;
#X obj 19 18 r loadbang;
#X msg 19 46 0;
#X obj 97 47 sel 1;
#X obj 14 169 outlet;
#X obj 100 176 outlet;
#X obj 210 148 tgl 15 0 empty empty empty 17 7 0 10 -262144 -1 -1 0
1;
#X obj 210 172 gate;
#X msg 210 115 1;
#X obj 284 94 del 300;
#X msg 303 140 0;
#X connect 0 0 10 0;
#X connect 1 0 4 0;
#X connect 2 0 3 0;
#X connect 3 0 9 0;
#X connect 4 0 3 1;
#X connect 5 0 12 1;
#X connect 5 0 14 0;
#X connect 6 0 7 0;
#X connect 6 0 0 0;
#X connect 6 0 13 0;
#X connect 7 0 2 0;
#X connect 8 0 2 0;
#X connect 11 0 12 0;
#X connect 12 0 8 0;
#X connect 13 0 11 0;
#X connect 14 0 15 0;
#X connect 15 0 11 0;
#X restore 51 664 pd vol-control;
#X obj 146 229 scale 0 1 0 200 2;
#X obj 127 400 scale 0 1 1 100;
#X obj 22 139 scale 0 1 -5 5;
#X connect 1 0 30 0;
#X connect 2 0 16 0;
#X connect 3 0 4 0;
#X connect 4 0 5 1;
#X connect 5 0 6 0;
#X connect 6 0 12 0;
#X connect 7 0 1 0;
#X connect 8 0 12 1;
#X connect 9 0 11 0;
#X connect 10 0 9 0;
#X connect 11 0 8 0;
#X connect 12 0 19 0;
#X connect 15 0 17 0;
#X connect 16 0 5 0;
#X connect 16 0 15 0;
#X connect 17 0 18 0;
#X connect 18 0 7 0;
#X connect 19 0 7 1;
#X connect 23 0 13 0;
#X connect 24 0 34 0;
#X connect 25 0 36 0;
#X connect 26 0 23 0;
#X connect 29 0 30 1;
#X connect 30 0 29 0;
#X connect 30 1 27 0;
#X connect 30 2 28 0;
#X connect 31 0 35 0;
#X connect 33 0 29 0;
#X connect 33 1 30 2;
#X connect 34 0 3 0;
#X connect 35 0 10 0;
#X connect 36 0 2 0;
